<svg width="778" height="337" viewBox="0 0 778 337" fill="none" xmlns="http://www.w3.org/2000/svg">
<g clip-path="url(#clip0)">
<path d="M79.689 74.052C59.229 74.052 49.21 89.385 57.423 108.124L128.105 269.387C136.319 288.126 149.76 288.126 157.972 269.387L228.657 108.124C236.87 89.385 226.848 74.052 206.388 74.052H79.689Z" fill="#914D28"/>
<path d="M223.006 96.319C225.358 99.668 230.037 100.506 233.404 98.182L268.57 73.908C271.941 71.584 271.791 68.016 268.241 65.978L228.968 43.444C225.419 41.407 221.792 43.01 220.905 47.006L214.716 74.948C213.831 78.943 215.032 84.954 217.382 88.303L223.006 96.319Z" fill="#914D28"/>
<path d="M252.049 76.817C255.689 74.947 255.854 71.603 252.413 69.386L231.302 55.782C227.863 53.565 224.884 55.096 224.684 59.184L223.458 84.264C223.259 88.351 226.073 90.165 229.712 88.294L252.049 76.817Z" fill="#743C1B"/>
<path d="M62.993 96.319C60.642 99.668 55.964 100.506 52.597 98.182L17.428 73.91C14.06 71.586 14.209 68.017 17.758 65.98L57.03 43.445C60.579 41.408 64.208 43.01 65.092 47.008L71.281 74.949C72.166 78.945 70.967 84.955 68.616 88.304L62.993 96.319Z" fill="#914D28"/>
<path d="M32.53 76.061C28.965 74.052 28.929 70.706 32.451 68.623L54.07 55.839C57.591 53.756 60.508 55.4 60.551 59.492L60.813 84.6C60.856 88.692 57.973 90.395 54.408 88.387L32.53 76.061Z" fill="#743C1B"/>
<path d="M119.643 129.994C123.49 129.994 126.608 125.033 126.608 118.913C126.608 112.793 123.49 107.832 119.643 107.832C115.796 107.832 112.678 112.793 112.678 118.913C112.678 125.033 115.796 129.994 119.643 129.994Z" fill="black"/>
<path d="M166.627 129.994C170.474 129.994 173.592 125.033 173.592 118.913C173.592 112.793 170.474 107.832 166.627 107.832C162.78 107.832 159.662 112.793 159.662 118.913C159.662 125.033 162.78 129.994 166.627 129.994Z" fill="black"/>
<path d="M141.582 191.161C160.991 191.161 176.725 180.672 176.725 167.733C176.725 154.794 160.991 144.305 141.582 144.305C122.173 144.305 106.439 154.794 106.439 167.733C106.439 180.672 122.173 191.161 141.582 191.161Z" fill="black"/>
<path d="M132.529 166.889C138.334 166.889 143.04 163.752 143.04 159.882C143.04 156.012 138.334 152.875 132.529 152.875C126.724 152.875 122.018 156.012 122.018 159.882C122.018 163.752 126.724 166.889 132.529 166.889Z" fill="white"/>
</g>
<path d="M324.92 125.4C327.4 125.88 329.24 126.72 330.44 127.92C331.72 129.12 332.36 130.52 332.36 132.12C332.36 134.76 331.6 136.68 330.08 137.88C328.64 139.08 326.32 139.56 323.12 139.32C315.92 138.76 310.28 138.4 306.2 138.24C302.2 138 296.92 137.84 290.36 137.76C287.4 152.48 284.68 167.28 282.2 182.16C281.32 187.6 280.4 193.92 279.44 201.12C278.48 208.24 277.84 214 277.52 218.4C277.36 220.72 276.4 222.52 274.64 223.8C272.88 225 270.76 225.6 268.28 225.6C265.64 225.6 263.6 224.96 262.16 223.68C260.72 222.4 260 220.72 260 218.64C260 216.72 260.28 213.56 260.84 209.16C261.48 204.68 262.2 200 263 195.12C263.88 190.24 264.56 186 265.04 182.4C265.92 176.32 266.92 170.28 268.04 164.28C269.16 158.28 270.28 152.6 271.4 147.24C271.64 146.04 271.92 144.68 272.24 143.16C272.56 141.56 272.92 139.8 273.32 137.88C265.48 138.12 259.32 138.76 254.84 139.8C250.36 140.84 247.16 142.32 245.24 144.24C243.4 146.08 242.48 148.48 242.48 151.44C242.48 154.16 243.28 156.76 244.88 159.24C245.2 159.8 245.36 160.4 245.36 161.04C245.36 162.56 244.44 164 242.6 165.36C240.84 166.64 239 167.28 237.08 167.28C235.72 167.28 234.6 166.88 233.72 166.08C232.12 164.72 230.8 162.8 229.76 160.32C228.72 157.76 228.2 154.88 228.2 151.68C228.2 144.88 230.4 139.44 234.8 135.36C239.28 131.2 246.04 128.16 255.08 126.24C264.2 124.32 275.88 123.36 290.12 123.36C298.92 123.36 305.92 123.52 311.12 123.84C316.4 124.16 321 124.68 324.92 125.4ZM356.171 198.24C357.211 198.24 358.011 198.72 358.571 199.68C359.211 200.64 359.531 201.96 359.531 203.64C359.531 206.84 358.771 209.32 357.251 211.08C354.291 214.68 350.091 218 344.651 221.04C339.291 224.08 333.531 225.6 327.371 225.6C318.971 225.6 312.451 223.32 307.811 218.76C303.171 214.2 300.851 207.96 300.851 200.04C300.851 194.52 302.011 189.4 304.331 184.68C306.651 179.88 309.851 176.08 313.931 173.28C318.091 170.48 322.771 169.08 327.971 169.08C332.611 169.08 336.331 170.48 339.131 173.28C341.931 176 343.331 179.72 343.331 184.44C343.331 189.96 341.331 194.72 337.331 198.72C333.411 202.64 326.731 205.76 317.291 208.08C319.291 211.76 323.091 213.6 328.691 213.6C332.291 213.6 336.371 212.36 340.931 209.88C345.571 207.32 349.571 204 352.931 199.92C353.891 198.8 354.971 198.24 356.171 198.24ZM325.931 180.84C322.971 180.84 320.451 182.56 318.371 186C316.371 189.44 315.371 193.6 315.371 198.48V198.72C320.091 197.6 323.811 195.92 326.531 193.68C329.251 191.44 330.611 188.84 330.611 185.88C330.611 184.36 330.171 183.16 329.291 182.28C328.491 181.32 327.371 180.84 325.931 180.84ZM417.334 198.24C418.374 198.24 419.174 198.72 419.734 199.68C420.374 200.64 420.694 201.96 420.694 203.64C420.694 206.84 419.934 209.32 418.414 211.08C415.134 215.08 411.534 218.52 407.614 221.4C403.694 224.2 399.814 225.6 395.974 225.6C389.894 225.6 385.254 222.04 382.054 214.92C378.694 219.16 375.734 222 373.174 223.44C370.694 224.88 367.774 225.6 364.414 225.6C359.534 225.6 355.494 223.8 352.294 220.2C349.174 216.52 347.614 211.76 347.614 205.92C347.614 199.52 348.974 193.6 351.694 188.16C354.414 182.64 358.134 178.16 362.854 174.72C367.654 171.2 373.014 169.12 378.934 168.48C380.454 152.96 383.334 139.72 387.574 128.76C391.894 117.72 397.534 112.2 404.494 112.2C407.934 112.2 410.774 113.76 413.014 116.88C415.334 120 416.494 124.72 416.494 131.04C416.494 140 414.294 150.48 409.894 162.48C405.494 174.48 399.614 186.8 392.254 199.44C392.574 204.08 393.254 207.4 394.294 209.4C395.414 211.4 396.814 212.4 398.494 212.4C400.654 212.4 402.854 211.44 405.094 209.52C407.334 207.6 410.334 204.4 414.094 199.92C415.054 198.8 416.134 198.24 417.334 198.24ZM403.174 123.96C401.654 123.96 400.134 126.68 398.614 132.12C397.094 137.48 395.774 144.52 394.654 153.24C393.614 161.96 392.854 171.08 392.374 180.6C401.334 161.08 405.814 145.4 405.814 133.56C405.814 130.52 405.534 128.16 404.974 126.48C404.494 124.8 403.894 123.96 403.174 123.96ZM368.614 213.48C370.134 213.48 371.654 212.88 373.174 211.68C374.694 210.4 376.614 208.08 378.934 204.72C378.134 200.4 377.734 195.56 377.734 190.2C377.734 188.28 377.814 185.16 377.974 180.84C373.574 182.2 369.894 185.16 366.934 189.72C364.054 194.2 362.614 199.2 362.614 204.72C362.614 210.56 364.614 213.48 368.614 213.48ZM477.92 198.24C478.96 198.24 479.76 198.72 480.32 199.68C480.96 200.64 481.28 201.96 481.28 203.64C481.28 206.84 480.52 209.32 479 211.08C475.72 215.08 472.12 218.52 468.2 221.4C464.28 224.2 460.4 225.6 456.56 225.6C450.48 225.6 445.84 222.04 442.64 214.92C439.28 219.16 436.32 222 433.76 223.44C431.28 224.88 428.36 225.6 425 225.6C420.12 225.6 416.08 223.8 412.88 220.2C409.76 216.52 408.2 211.76 408.2 205.92C408.2 199.52 409.56 193.6 412.28 188.16C415 182.64 418.72 178.16 423.44 174.72C428.24 171.2 433.6 169.12 439.52 168.48C441.04 152.96 443.92 139.72 448.16 128.76C452.48 117.72 458.12 112.2 465.08 112.2C468.52 112.2 471.36 113.76 473.6 116.88C475.92 120 477.08 124.72 477.08 131.04C477.08 140 474.88 150.48 470.48 162.48C466.08 174.48 460.2 186.8 452.84 199.44C453.16 204.08 453.84 207.4 454.88 209.4C456 211.4 457.4 212.4 459.08 212.4C461.24 212.4 463.44 211.44 465.68 209.52C467.92 207.6 470.92 204.4 474.68 199.92C475.64 198.8 476.72 198.24 477.92 198.24ZM463.76 123.96C462.24 123.96 460.72 126.68 459.2 132.12C457.68 137.48 456.36 144.52 455.24 153.24C454.2 161.96 453.44 171.08 452.96 180.6C461.92 161.08 466.4 145.4 466.4 133.56C466.4 130.52 466.12 128.16 465.56 126.48C465.08 124.8 464.48 123.96 463.76 123.96ZM429.2 213.48C430.72 213.48 432.24 212.88 433.76 211.68C435.28 210.4 437.2 208.08 439.52 204.72C438.72 200.4 438.32 195.56 438.32 190.2C438.32 188.28 438.4 185.16 438.56 180.84C434.16 182.2 430.48 185.16 427.52 189.72C424.64 194.2 423.2 199.2 423.2 204.72C423.2 210.56 425.2 213.48 429.2 213.48ZM532.958 198.48C533.998 198.48 534.798 199 535.358 200.04C535.998 201 536.318 202.24 536.318 203.76C536.318 205.6 536.038 207.04 535.478 208.08C534.918 209.12 534.038 210.04 532.838 210.84L509.798 226.32C506.758 242.88 502.758 255.88 497.798 265.32C492.918 274.84 486.678 279.6 479.078 279.6C474.998 279.6 471.678 278.32 469.118 275.76C466.558 273.28 465.278 270 465.278 265.92C465.278 262.16 466.118 258.32 467.798 254.4C469.558 250.48 472.758 245.96 477.398 240.84C482.118 235.8 488.758 230 497.318 223.44L497.678 220.68C498.238 217.72 498.878 213.48 499.598 207.96C497.998 213.72 495.758 218.12 492.878 221.16C489.998 224.12 486.958 225.6 483.758 225.6C480.158 225.6 477.198 223.96 474.878 220.68C472.638 217.32 471.518 213.16 471.518 208.2C471.518 202.2 471.918 196.72 472.718 191.76C473.518 186.72 474.838 181.4 476.678 175.8C477.478 173.4 478.598 171.68 480.038 170.64C481.478 169.6 483.758 169.08 486.878 169.08C488.638 169.08 489.838 169.36 490.478 169.92C491.198 170.48 491.558 171.32 491.558 172.44C491.558 173.08 491.118 175.24 490.238 178.92C489.438 181.88 488.798 184.56 488.318 186.96C487.678 190.24 487.118 193.4 486.638 196.44C486.158 199.4 485.918 201.84 485.918 203.76C485.918 206.8 486.758 208.32 488.438 208.32C489.638 208.32 491.118 207.12 492.878 204.72C494.718 202.32 496.638 198.68 498.638 193.8C500.718 188.92 502.718 182.92 504.638 175.8C505.278 173.4 506.238 171.68 507.518 170.64C508.878 169.6 510.878 169.08 513.518 169.08C515.358 169.08 516.638 169.32 517.358 169.8C518.078 170.28 518.438 171.08 518.438 172.2C518.438 174.2 517.398 181.08 515.318 192.84L512.198 212.16C518.358 207.52 524.358 203.28 530.198 199.44C531.238 198.8 532.158 198.48 532.958 198.48ZM480.398 267.96C482.398 267.96 484.638 265.64 487.118 261C489.598 256.36 492.078 248.64 494.558 237.84C488.398 243.04 483.918 247.76 481.118 252C478.398 256.32 477.038 260.08 477.038 263.28C477.038 264.64 477.278 265.76 477.758 266.64C478.318 267.52 479.198 267.96 480.398 267.96ZM624.1 125.4C626.58 125.88 628.42 126.72 629.62 127.92C630.9 129.12 631.54 130.52 631.54 132.12C631.54 134.76 630.78 136.68 629.26 137.88C627.82 139.08 625.5 139.56 622.3 139.32C615.1 138.76 609.46 138.4 605.38 138.24C601.38 138 596.1 137.84 589.54 137.76C586.58 152.48 583.86 167.28 581.38 182.16C580.5 187.6 579.58 193.92 578.62 201.12C577.66 208.24 577.02 214 576.7 218.4C576.54 220.72 575.58 222.52 573.82 223.8C572.06 225 569.94 225.6 567.46 225.6C564.82 225.6 562.78 224.96 561.34 223.68C559.9 222.4 559.18 220.72 559.18 218.64C559.18 216.72 559.46 213.56 560.02 209.16C560.66 204.68 561.38 200 562.18 195.12C563.06 190.24 563.74 186 564.22 182.4C565.1 176.32 566.1 170.28 567.22 164.28C568.34 158.28 569.46 152.6 570.58 147.24C570.82 146.04 571.1 144.68 571.42 143.16C571.74 141.56 572.1 139.8 572.5 137.88C564.66 138.12 558.5 138.76 554.02 139.8C549.54 140.84 546.34 142.32 544.42 144.24C542.58 146.08 541.66 148.48 541.66 151.44C541.66 154.16 542.46 156.76 544.06 159.24C544.38 159.8 544.54 160.4 544.54 161.04C544.54 162.56 543.62 164 541.78 165.36C540.02 166.64 538.18 167.28 536.26 167.28C534.9 167.28 533.78 166.88 532.9 166.08C531.3 164.72 529.98 162.8 528.94 160.32C527.9 157.76 527.38 154.88 527.38 151.68C527.38 144.88 529.58 139.44 533.98 135.36C538.46 131.2 545.22 128.16 554.26 126.24C563.38 124.32 575.06 123.36 589.3 123.36C598.1 123.36 605.1 123.52 610.3 123.84C615.58 124.16 620.18 124.68 624.1 125.4ZM616.004 225.6C611.044 225.6 607.084 223.8 604.124 220.2C601.164 216.6 599.684 211.88 599.684 206.04C599.684 199.64 601.164 193.6 604.124 187.92C607.084 182.16 611.004 177.56 615.884 174.12C620.844 170.6 626.084 168.84 631.604 168.84C633.364 168.84 634.524 169.2 635.084 169.92C635.724 170.56 636.244 171.76 636.644 173.52C638.324 173.2 640.084 173.04 641.924 173.04C645.844 173.04 647.804 174.44 647.804 177.24C647.804 178.92 647.204 182.92 646.004 189.24C644.164 198.44 643.244 204.84 643.244 208.44C643.244 209.64 643.524 210.6 644.084 211.32C644.724 212.04 645.524 212.4 646.484 212.4C648.004 212.4 649.844 211.44 652.004 209.52C654.164 207.52 657.084 204.32 660.764 199.92C661.724 198.8 662.804 198.24 664.004 198.24C665.044 198.24 665.844 198.72 666.404 199.68C667.044 200.64 667.364 201.96 667.364 203.64C667.364 206.84 666.604 209.32 665.084 211.08C661.804 215.16 658.324 218.6 654.644 221.4C650.964 224.2 647.404 225.6 643.964 225.6C641.324 225.6 638.884 224.72 636.644 222.96C634.484 221.12 632.844 218.64 631.724 215.52C627.564 222.24 622.324 225.6 616.004 225.6ZM620.324 213.48C622.084 213.48 623.764 212.44 625.364 210.36C626.964 208.28 628.124 205.52 628.844 202.08L633.284 180C629.924 180.08 626.804 181.36 623.924 183.84C621.124 186.24 618.884 189.44 617.204 193.44C615.524 197.44 614.684 201.68 614.684 206.16C614.684 208.64 615.164 210.48 616.124 211.68C617.164 212.88 618.564 213.48 620.324 213.48ZM698.292 173.04C700.292 173.04 701.692 173.36 702.492 174C703.372 174.56 703.812 175.72 703.812 177.48C703.812 178.44 703.772 179.2 703.692 179.76C703.372 182.24 702.372 188.64 700.692 198.96C699.492 205.92 698.732 210.52 698.412 212.76C695.372 233.4 691.252 249.68 686.052 261.6C680.932 273.6 674.052 279.6 665.412 279.6C661.332 279.6 658.012 278.32 655.452 275.76C652.892 273.28 651.612 270 651.612 265.92C651.612 260.24 653.852 254.12 658.332 247.56C662.812 241.08 671.212 233.08 683.532 223.56L684.252 218.88C682.892 221.04 681.092 222.72 678.852 223.92C676.692 225.04 674.532 225.6 672.372 225.6C667.412 225.6 663.452 223.8 660.492 220.2C657.532 216.6 656.052 211.88 656.052 206.04C656.052 199.64 657.532 193.6 660.492 187.92C663.452 182.16 667.372 177.56 672.252 174.12C677.212 170.6 682.452 168.84 687.972 168.84C689.732 168.84 690.892 169.2 691.452 169.92C692.092 170.56 692.612 171.76 693.012 173.52C694.532 173.2 696.292 173.04 698.292 173.04ZM676.692 213.48C678.532 213.48 680.292 212.36 681.972 210.12C683.652 207.88 684.852 204.68 685.572 200.52L689.412 180C686.132 180.08 683.092 181.36 680.292 183.84C677.492 186.24 675.252 189.44 673.572 193.44C671.892 197.44 671.052 201.68 671.052 206.16C671.052 208.64 671.532 210.48 672.492 211.68C673.532 212.88 674.932 213.48 676.692 213.48ZM666.732 267.96C668.732 267.96 670.972 265.56 673.452 260.76C676.012 255.96 678.452 248.32 680.772 237.84C674.612 243.12 670.172 247.88 667.452 252.12C664.732 256.36 663.372 260.08 663.372 263.28C663.372 264.64 663.612 265.76 664.092 266.64C664.652 267.52 665.532 267.96 666.732 267.96ZM733.252 228.24C729.092 228.24 725.892 227.28 723.652 225.36C721.492 223.44 720.412 221.28 720.412 218.88C720.412 216.8 721.172 215 722.692 213.48C724.212 211.96 726.452 211.2 729.412 211.2C730.452 211.2 731.652 211.32 733.012 211.56C734.452 211.72 735.532 211.84 736.252 211.92C736.172 209.84 735.692 207.88 734.812 206.04C734.012 204.2 732.972 202.44 731.692 200.76C730.412 199 729.212 197.48 728.092 196.2C725.612 200.92 723.132 204.84 720.652 207.96C718.252 211.08 715.612 214.04 712.732 216.84C711.292 218.28 709.772 219 708.172 219C706.892 219 705.852 218.56 705.052 217.68C704.252 216.72 703.852 215.56 703.852 214.2C703.852 212.6 704.412 211.12 705.532 209.76L707.092 207.84C711.492 202.4 714.812 197.92 717.052 194.4C718.492 192.08 719.932 189.32 721.372 186.12C722.892 182.92 724.852 178.56 727.252 173.04C728.772 169.52 731.932 167.76 736.732 167.76C738.972 167.76 740.532 167.96 741.412 168.36C742.292 168.76 742.732 169.4 742.732 170.28C742.732 170.76 742.572 171.52 742.252 172.56C741.932 173.6 741.492 174.64 740.932 175.68C739.492 178.56 738.772 181 738.772 183C738.772 184.2 739.172 185.52 739.972 186.96C740.852 188.4 742.172 190.2 743.932 192.36C746.492 195.72 748.412 198.6 749.692 201C751.052 203.32 751.732 205.88 751.732 208.68C751.732 212.04 750.932 215.24 749.332 218.28C747.812 221.24 745.652 223.64 742.852 225.48C740.052 227.32 736.852 228.24 733.252 228.24Z" fill="#914D28"/>
<defs>
<clipPath id="clip0">
<rect x="15" y="35" width="256" height="256" fill="white"/>
</clipPath>
</defs>
</svg>
