<svg width="50" height="50" viewBox="0 0 256 256" fill="none" xmlns="http://www.w3.org/2000/svg">
<g clip-path="url(#clip0)">
<path d="M62.7287 37.8686C42.8887 37.8686 33.1733 52.737 41.1375 70.9081L109.678 227.284C117.643 245.455 130.676 245.455 138.64 227.284L207.183 70.9081C215.147 52.737 205.428 37.8686 185.588 37.8686H62.7287V37.8686Z" fill="white"/>
<path d="M47.993 61.319C45.642 64.668 40.964 65.506 37.597 63.182L2.42799 38.91C-0.940014 36.586 -0.791014 33.017 2.75799 30.98L42.03 8.44503C45.579 6.40803 49.208 8.01003 50.092 12.008L56.281 39.949C57.166 43.945 55.967 49.955 53.616 53.304L47.993 61.319Z" fill="white"/>
<path d="M17.53 41.0611C13.965 39.0521 13.929 35.7061 17.451 33.6231L39.07 20.8391C42.591 18.7561 45.508 20.4001 45.551 24.4921L45.813 49.6001C45.856 53.6921 42.973 55.3951 39.408 53.3871L17.53 41.0611Z" fill="#743C1B"/>
<path d="M201.703 59.4609C203.984 62.7084 208.521 63.521 211.786 61.2674L245.886 37.729C249.155 35.4754 249.009 32.0155 245.567 30.0393L207.484 8.18815C204.043 6.21288 200.526 7.7673 199.665 11.6422L193.664 38.7375C192.806 42.6114 193.97 48.4403 196.249 51.6878L201.703 59.4609Z" fill="white"/>
<path d="M229.866 40.5498C233.395 38.7365 233.555 35.4938 230.219 33.344L209.747 20.1523C206.413 18.0024 203.524 19.4871 203.33 23.4512L202.141 47.7712C201.948 51.7343 204.677 53.4934 208.206 51.6791L229.866 40.5498Z" fill="#743C1B"/>
<path d="M101.472 92.1154C105.202 92.1154 108.226 87.3046 108.226 81.3702C108.226 75.4358 105.202 70.625 101.472 70.625C97.7419 70.625 94.7181 75.4358 94.7181 81.3702C94.7181 87.3046 97.7419 92.1154 101.472 92.1154Z" fill="black"/>
<path d="M147.032 92.1154C150.762 92.1154 153.786 87.3046 153.786 81.3702C153.786 75.4358 150.762 70.625 147.032 70.625C143.302 70.625 140.278 75.4358 140.278 81.3702C140.278 87.3046 143.302 92.1154 147.032 92.1154Z" fill="black"/>
<path d="M122.746 151.429C141.567 151.429 156.824 141.258 156.824 128.711C156.824 116.164 141.567 105.993 122.746 105.993C103.925 105.993 88.6681 116.164 88.6681 128.711C88.6681 141.258 103.925 151.429 122.746 151.429Z" fill="black"/>
<path d="M113.968 127.892C119.597 127.892 124.16 124.85 124.16 121.098C124.16 117.345 119.597 114.303 113.968 114.303C108.338 114.303 103.775 117.345 103.775 121.098C103.775 124.85 108.338 127.892 113.968 127.892Z" fill="white"/>
</g>
<defs>
<clipPath id="clip0">
<rect width="256" height="256" fill="white"/>
</clipPath>
</defs>
</svg>
